<svg width="100" height="88" viewBox="0 0 100 88" fill="none" xmlns="http://www.w3.org/2000/svg">
<path fill-rule="evenodd" clip-rule="evenodd" d="M37.2069 0C16.6709 0 0 12.4671 0 27.8455C0 41.875 13.8977 53.4574 31.949 55.3711L24.288 70.6491L50.9477 53.7084C64.6822 49.605 75.2357 39.5848 75.2357 27.8455C75.2357 12.4734 57.7491 0 37.2069 0Z" fill="#40505F"/>
<path fill-rule="evenodd" clip-rule="evenodd" d="M100.001 55.7794C100.001 48.727 93.3381 41.4237 85.6395 37.7845C83.4811 50.0195 73.5676 61.282 57.9257 65.6866L50.478 69.7147C53.3266 71.848 56.8151 73.5483 60.7303 74.6589L83.5564 87.0256L75.3809 75.8824C89.2911 74.4706 100.001 66.0254 100.001 55.7794Z" fill="#40505F"/>
</svg>
