<svg width="100" height="100" viewBox="0 0 100 100" fill="none" xmlns="http://www.w3.org/2000/svg">
<path d="M77.9562 49.6625C89.9443 49.6625 99.6625 44.1416 99.6625 37.3313C99.6625 30.5209 89.9443 25 77.9562 25C65.9682 25 56.25 30.5209 56.25 37.3313C56.25 44.1416 65.9682 49.6625 77.9562 49.6625Z" fill="#40505F"/>
<path fill-rule="evenodd" clip-rule="evenodd" d="M78.2814 56.7563C62.7564 56.7563 56.5752 50.2501 56.5752 46.4813V62.6251C56.5752 69.4376 66.2939 74.9501 78.2814 74.9501C90.2814 74.9501 100 69.4376 100 62.6251V46.8688C100 50.6438 93.8127 56.7563 78.2814 56.7563Z" fill="#40505F"/>
<path fill-rule="evenodd" clip-rule="evenodd" d="M78.2814 81.7001C64.3939 81.7001 56.5752 75.4438 56.5752 71.6751V87.6688C56.5752 94.4813 66.2939 100 78.2814 100C90.2814 100 100 94.4813 100 87.6688V71.4813C100 75.2501 92.1752 81.7001 78.2814 81.7001Z" fill="#40505F"/>
<path d="M24.6063 24.6625C38.1959 24.6625 49.2125 19.1416 49.2125 12.3313C49.2125 5.52089 38.1959 0 24.6063 0C11.0166 0 0 5.52089 0 12.3313C0 19.1416 11.0166 24.6625 24.6063 24.6625Z" fill="#40505F"/>
<path fill-rule="evenodd" clip-rule="evenodd" d="M25.3875 31.7563C7.79375 31.7563 0.78125 25.2501 0.78125 21.4813V37.6251C0.78125 44.4376 11.8 49.9501 25.3875 49.9501C38.9875 49.9501 50 44.4376 50 37.6251V21.8688C50 25.6438 42.9813 31.7563 25.3875 31.7563Z" fill="#40505F"/>
<path fill-rule="evenodd" clip-rule="evenodd" d="M25.3875 56.7001C9.64375 56.7001 0.78125 50.4438 0.78125 46.6751V62.6688C0.78125 69.4813 11.8 75.0001 25.3875 75.0001C38.9875 75.0001 50 69.4813 50 62.6688V46.4813C50 50.2501 41.125 56.7001 25.3875 56.7001Z" fill="#40505F"/>
<path fill-rule="evenodd" clip-rule="evenodd" d="M25.3875 81.7001C9.64375 81.7001 0.78125 75.4438 0.78125 71.6751V87.6688C0.78125 94.4813 11.8 100 25.3875 100C38.9875 100 50 94.4813 50 87.6688V71.4813C50 75.2501 41.125 81.7001 25.3875 81.7001Z" fill="#40505F"/>
</svg>
