<svg width="40" height="30" viewBox="0 0 40 30" fill="none" xmlns="http://www.w3.org/2000/svg">
<path d="M32.0976 0C30.8595 0 29.6644 0.524093 28.7088 1.43648C26.6526 0.590495 24.3999 0.0153654 21.9588 0.0153654C14.1771 0.0153654 7.57502 4.82113 6.18031 11.5978C5.49387 11.3138 4.79468 11.1293 4.09724 11.1293C1.8605 11.1293 0 13.1105 0 15.5445C0 17.9786 1.8605 19.9598 4.09724 19.9598C4.4539 19.9651 4.79815 19.8146 5.0521 19.5419C5.30641 19.2691 5.44942 18.8966 5.44942 18.5079C5.44942 18.1196 5.30641 17.7471 5.0521 17.4743C4.79813 17.2016 4.45388 17.0508 4.09724 17.0564C3.2802 17.0564 2.66645 16.386 2.66645 15.5445C2.66645 14.7031 3.28017 14.0323 4.09724 14.0323C4.33673 14.0323 4.89016 14.1403 5.33334 14.3346C5.77614 14.529 6.10283 14.861 6.0694 14.8036C6.26995 15.1506 6.59629 15.3892 6.9671 15.4601C7.33823 15.531 7.71935 15.4278 8.0167 15.1761C8.31409 14.924 8.49983 14.547 8.52774 14.138L8.61114 12.9285V12.8831C9.34892 7.42415 14.8856 2.91889 21.9584 2.91889C24.3561 2.91889 26.5952 3.49063 28.5553 4.41578C28.8265 4.54445 29.1294 4.57109 29.4161 4.49156C29.7025 4.41203 29.9568 4.2312 30.1388 3.97722C30.2363 3.84103 30.2918 3.76038 30.3055 3.73562C30.7911 3.19764 31.4668 2.90389 32.0971 2.90389H32.1109C32.2215 2.90351 32.3249 2.91139 32.3887 2.91889L31.3611 4.15877C31.1144 4.45965 30.9938 4.85845 31.0279 5.26026C31.062 5.66168 31.2481 6.02971 31.5417 6.27579C33.1458 7.63016 34.2902 9.29319 34.9029 11.1142C34.9973 11.3956 35.1696 11.6383 35.396 11.809C35.6221 11.9793 35.8916 12.0697 36.1666 12.0667H37.3334V16.1042H36.1666C35.8916 16.1016 35.6221 16.1916 35.396 16.3623C35.1696 16.5326 34.9973 16.7753 34.9029 17.0567C34.243 19.0177 32.9249 20.7809 31.0972 22.1979C30.8549 22.3847 30.6771 22.6544 30.5916 22.9639C30.5058 23.2734 30.5179 23.6051 30.6251 23.9063L31.7361 27.0967H29.1389L28.5138 25.3125C28.3945 24.9703 28.1609 24.6897 27.8594 24.5269C27.5582 24.3644 27.2115 24.3318 26.889 24.4357C25.3586 24.941 23.7118 25.222 21.9584 25.222C20.2252 25.222 18.5749 24.9354 17.0555 24.4357C16.733 24.3318 16.3863 24.3644 16.0851 24.5269C15.7836 24.6897 15.55 24.9703 15.4304 25.3125L14.8056 27.0967H12.2084L13.3195 23.9063C13.4266 23.6051 13.4383 23.2734 13.3529 22.9639C13.2674 22.6544 13.0893 22.3847 12.8473 22.1979C11.3222 21.0139 10.1502 19.568 9.4165 17.9792C9.20216 17.5166 8.77796 17.2131 8.30276 17.1827C7.82756 17.1523 7.37375 17.3996 7.11113 17.8317C6.8482 18.2635 6.8165 18.815 7.02773 19.2795C7.82996 21.0176 9.07225 22.5084 10.5137 23.8005L9.02779 28.0191C8.86755 28.4648 8.91924 28.9679 9.16666 29.3641C9.41374 29.7599 9.82415 29.9981 10.2639 30H15.7223C15.9935 30.0007 16.2585 29.9111 16.4818 29.7437C16.7051 29.5764 16.8761 29.3386 16.9722 29.0625L17.5139 27.5201C18.9319 27.8803 20.4044 28.1249 21.9585 28.1249C23.5268 28.1249 25.0158 27.884 26.4445 27.5201L26.9863 29.0625C27.0814 29.3363 27.2506 29.5723 27.4711 29.7396C27.6916 29.9069 27.9535 29.9977 28.2223 30H33.6808C34.1229 30.003 34.5378 29.767 34.788 29.3704C35.0385 28.9735 35.0919 28.4675 34.9306 28.0192L33.4585 23.8459C34.9791 22.4909 36.2129 20.8645 37.014 19.0071H38.6667C39.0203 19.0071 39.3593 18.8544 39.6096 18.5821C39.8597 18.3097 40 17.9405 40 17.5556V10.6151C40 10.2302 39.8597 9.86105 39.6096 9.58864C39.3594 9.31665 39.0203 9.16359 38.6667 9.16359H37.014C36.3569 7.62848 35.4196 6.2284 34.25 5.02031L35.5278 3.46301C35.769 3.17414 35.8934 2.79148 35.8724 2.40167C35.8517 2.01188 35.6873 1.64797 35.4168 1.39132C34.6745 0.690151 33.7634 0.171706 32.7361 0.0306223H32.7224C32.4856 -0.000890519 32.2833 -0.000517067 32.0973 0.000233008L32.0976 0ZM21.875 5.82168C21.5214 5.82956 21.1851 5.99013 20.9401 6.26811C20.6954 6.5461 20.562 6.91826 20.5693 7.30314V7.59052C18.9552 8.15851 17.7081 9.63627 17.7081 11.5372C17.7081 12.5445 18.1247 13.5803 18.8469 14.2889C19.5696 14.9976 20.5365 15.4216 21.6943 15.6196C22.489 15.7558 22.9473 16.0248 23.1665 16.2397C23.3857 16.4547 23.4304 16.5714 23.4304 16.8141C23.4304 17.4042 22.8188 18.1144 21.7778 18.1144C21.0093 18.1144 20.4229 17.6815 20.2219 17.2677C20.0661 16.912 19.7839 16.6404 19.44 16.5158C19.0964 16.3913 18.7212 16.4239 18.4 16.607C18.0792 16.7897 17.8404 17.1071 17.7387 17.4856C17.6371 17.8638 17.6812 18.2712 17.8611 18.6133C18.4097 19.7448 19.4049 20.5439 20.5692 20.8665V21.0631C20.5641 21.4518 20.7026 21.8262 20.9531 22.1027C21.2036 22.3795 21.5458 22.5352 21.9025 22.5352C22.2595 22.5352 22.6017 22.3795 22.8523 22.1027C23.1028 21.8262 23.241 21.4518 23.2361 21.0631V20.7757C24.8503 20.2081 26.097 18.715 26.097 16.8141C26.097 15.8068 25.6807 14.786 24.9581 14.0773C24.2359 13.3686 23.2686 12.9447 22.1111 12.7467C21.3161 12.6109 20.8441 12.3419 20.6248 12.1269C20.406 11.9119 20.375 11.7799 20.375 11.5372C20.375 10.9467 20.9863 10.2369 22.0277 10.2369C22.7958 10.2369 23.3833 10.6859 23.5832 11.0986C23.7489 11.4396 24.0322 11.6947 24.3709 11.8084C24.7097 11.9217 25.0756 11.8842 25.3889 11.7037C25.7021 11.5233 25.9364 11.2145 26.0409 10.8461C26.1449 10.4774 26.1101 10.0786 25.9444 9.73792C25.3958 8.60609 24.4006 7.8224 23.2362 7.4997V7.30312C23.2438 6.9077 23.1028 6.52617 22.8458 6.24629C22.5887 5.96679 22.2382 5.81343 21.875 5.82168ZM31.7218 8.73968C31.1081 8.73968 30.6104 9.2814 30.6104 9.94959C30.6104 10.6177 31.108 11.1591 31.7218 11.1591C32.3355 11.1591 32.8328 10.6178 32.8328 9.94959C32.8328 9.28144 32.3355 8.73968 31.7218 8.73968Z" fill="#E47E55"/>
</svg>
