<svg width="80" height="80" viewBox="0 0 80 80" fill="none" xmlns="http://www.w3.org/2000/svg">
<path d="M38.522 42.3794L13.8553 34.1044C12.943 33.7984 12.947 32.5067 13.8611 32.2063L38.5277 24.1002C38.7261 24.0351 38.9399 24.0336 39.1392 24.0961L64.9886 32.2022C65.92 32.4943 65.9239 33.8111 64.9942 34.1088L39.145 42.3837C38.9421 42.4486 38.7239 42.4471 38.522 42.3794Z" fill="white"/>
<path d="M21.8662 51.0585V39.8159L38.5313 45.2438C38.7275 45.3076 38.9386 45.3093 39.1357 45.2485L56.7525 39.8159V51.0585C49.5084 59.6334 28.5385 58.2995 21.8662 51.0585Z" fill="white"/>
<path d="M64.5686 36.9576L62.2809 37.7198V45.3419C59.9496 50.2547 60.3901 52.0508 63.6154 53.9168C66.8194 51.2661 66.6373 49.2927 64.5686 45.3419V36.9576Z" fill="white"/>
<path d="M38.522 42.3794L13.8553 34.1044C12.943 33.7984 12.947 32.5067 13.8611 32.2063L38.5277 24.1002C38.7261 24.0351 38.9399 24.0336 39.1392 24.0961L64.9886 32.2022C65.92 32.4943 65.9239 33.8111 64.9942 34.1088L39.145 42.3837C38.9421 42.4486 38.7239 42.4471 38.522 42.3794Z" stroke="#687f9d" stroke-width="2"/>
<path d="M21.8662 51.0585V39.8159L38.5313 45.2438C38.7275 45.3076 38.9386 45.3093 39.1357 45.2485L56.7525 39.8159V51.0585C49.5084 59.6334 28.5385 58.2995 21.8662 51.0585Z" stroke="#687f9d" stroke-width="2"/>
<path d="M64.5686 36.9576L62.2809 37.7198V45.3419C59.9496 50.2547 60.3901 52.0508 63.6154 53.9168C66.8194 51.2661 66.6373 49.2927 64.5686 45.3419V36.9576Z" stroke="#687f9d" stroke-width="2"/>
</svg>
