<svg width="30" height="30" viewBox="0 0 30 30" fill="none" xmlns="http://www.w3.org/2000/svg">
<path d="M9.4999 13.1536C9.22377 13.1536 9 13.3777 9 13.6538V15.4997C9 15.6322 9.05259 15.7595 9.14637 15.8533C9.24015 15.947 9.36742 15.9996 9.4999 15.9996H20.4987C20.6314 15.9996 20.7584 15.947 20.8522 15.8533C20.946 15.7595 20.9986 15.6322 20.9986 15.4997V13.6538C20.9986 13.5211 20.946 13.394 20.8522 13.3002C20.7584 13.2065 20.6314 13.1536 20.4987 13.1536H19.7569C19.6735 12.9129 19.5698 12.68 19.4468 12.4572L19.9342 12.0071C20.037 11.9126 20.0953 11.7793 20.0953 11.6396C20.0953 11.5002 20.037 11.367 19.9342 11.2722L18.5199 9.96712C18.3283 9.79047 18.0334 9.79047 17.8418 9.96712L17.3129 10.4552C17.0509 10.3271 16.7788 10.2217 16.499 10.1398V9.4997C16.499 9.36721 16.4464 9.23993 16.3526 9.14614C16.2588 9.05235 16.1318 8.99976 15.9991 8.99976H13.9992C13.7231 8.99976 13.4993 9.22355 13.4993 9.4997V10.1398C13.2195 10.2214 12.9473 10.3269 12.6854 10.4547L12.1565 9.96663C11.9649 9.78998 11.67 9.78998 11.4784 9.96663L10.064 11.2717C9.96158 11.3665 9.90302 11.4997 9.90302 11.6391C9.90302 11.7788 9.96157 11.9121 10.064 12.0066L10.5515 12.4567C10.4285 12.6795 10.3248 12.9124 10.2417 13.1531L9.4999 13.1536ZM13.0401 14.9998C13.2257 13.8602 14.0335 12.9998 14.9995 12.9998C15.9653 12.9998 16.7734 13.8602 16.959 14.9998H13.0401ZM10.6148 14.1537C10.845 14.154 11.0457 13.9969 11.1008 13.7731C11.2002 13.3714 11.3714 12.9909 11.6061 12.6497C11.7463 12.4447 11.7148 12.1678 11.5322 11.9996L11.1407 11.6381L11.8177 11.0132L12.2678 11.4292H12.2675C12.4288 11.5781 12.6684 11.6044 12.858 11.4942C13.2445 11.2697 13.6645 11.1089 14.1019 11.0176C14.3331 10.9692 14.4991 10.7655 14.4993 10.5291V9.99964H15.4991V10.5291H15.4993C15.4991 10.7658 15.6648 10.97 15.8963 11.0186C16.3337 11.1099 16.7537 11.2707 17.1402 11.4952C17.33 11.6054 17.5694 11.5791 17.7307 11.4302L18.1807 11.0142L18.8577 11.6391L18.4665 11.9996C18.2839 12.1679 18.2524 12.4447 18.3925 12.6497C18.6275 12.9906 18.7992 13.3711 18.8989 13.7731C18.954 13.9969 19.1547 14.154 19.3849 14.1537H19.9989V14.9998H17.9651C17.7557 13.3062 16.5079 11.9999 14.9995 11.9999C13.4911 11.9999 12.2433 13.3064 12.0339 14.9998H9.9998V14.1537H10.6148Z" fill="#E47E55"/>
<path d="M6.99978 29.9999H22.9981C23.1308 29.9999 23.2578 29.947 23.3516 29.8535C23.4454 29.7597 23.4982 29.6324 23.4982 29.5V28.0073C23.4955 26.5621 22.9726 25.1663 22.0249 24.0753C21.0772 22.9844 19.7683 22.2713 18.3375 22.0669C19.9605 21.1131 20.969 19.3823 20.9983 17.4999C20.9983 17.3672 20.9457 17.2402 20.8519 17.1464C20.7581 17.0526 20.6311 17 20.4984 17H9.49961C9.22349 17 8.99971 17.2238 8.99971 17.4999C9.02899 19.3824 10.0375 21.1132 11.6605 22.0669C10.23 22.2713 8.92083 22.9844 7.97313 24.0753C7.02542 25.1663 6.50248 26.5621 6.5 28.0073V29.5C6.5 29.6324 6.5526 29.7597 6.64637 29.8535C6.74015 29.947 6.86718 29.9999 6.9999 29.9999H6.99978ZM10.0304 17.9998H19.9673C19.6904 20.2467 17.5676 21.9999 14.9989 21.9999C12.4299 21.9999 10.3073 20.247 10.0302 17.9998H10.0304ZM7.49967 28.0074C7.50116 26.6798 8.02934 25.407 8.96784 24.4683C9.9066 23.5295 11.1793 23.0015 12.5068 22.9998H17.4914C18.8187 23.0015 20.0914 23.5295 21.0302 24.4683C21.9687 25.4069 22.4969 26.6797 22.4983 28.0074V28.9998H7.49967V28.0074Z" fill="#E47E55"/>
<path d="M7.64648 6.35361L8.35355 5.64648L10.3534 7.64648L9.6463 8.3536L7.64648 6.35361Z" fill="#E47E55"/>
<path d="M4.5 14.4995H7.49961V15.4994H4.5V14.4995Z" fill="#E47E55"/>
<path d="M22.5 14.4995H25.4996V15.4994H22.5V14.4995Z" fill="#E47E55"/>
<path d="M19.6465 7.64623L21.6463 5.64624L22.3534 6.35336L20.3535 8.35335L19.6465 7.64623Z" fill="#E47E55"/>
<path d="M12.7162 5.1354L12.3438 7.4195C12.3128 7.60831 12.3927 7.79836 12.5492 7.90877C12.7057 8.01893 12.9117 8.0301 13.0791 7.9373L15.0001 6.87538L16.921 7.9373H16.9208C17.0885 8.03009 17.2941 8.01868 17.4507 7.90827C17.6072 7.79811 17.6869 7.60831 17.6563 7.4195L17.284 5.1354L18.8578 3.52292H18.8576C18.9886 3.38869 19.0335 3.19269 18.9739 3.01479C18.9144 2.83714 18.7603 2.70764 18.5752 2.67935L16.4208 2.34986L15.4523 0.287309C15.3699 0.111897 15.1938 0 15 0C14.8063 0 14.6299 0.111897 14.5475 0.287309L13.579 2.34986L11.4246 2.67886H11.4248C11.2395 2.70714 11.0854 2.83666 11.0259 3.0143C10.9664 3.19219 11.0113 3.3882 11.1423 3.52242L12.7162 5.1354ZM13.9941 3.29992C14.1588 3.27461 14.3002 3.16891 14.3709 3.01782L15.0001 1.67706L15.629 3.01661V3.01636C15.6997 3.16746 15.8411 3.27316 16.0058 3.29846L17.4621 3.52101L16.3916 4.61794H16.3919C16.281 4.73157 16.2306 4.89135 16.2564 5.04791L16.5065 6.56384L15.2447 5.86644H15.2445C15.0939 5.78332 14.911 5.78332 14.7605 5.86644L13.4987 6.56384L13.7463 5.04791H13.746C13.7718 4.89135 13.7215 4.73157 13.6106 4.61794L12.5378 3.52101L13.9941 3.29992Z" fill="#E47E55"/>
<path d="M29.6835 9.5352L28.0977 8.89978L27.4634 7.3129V7.31265C27.3875 7.1226 27.2034 6.9978 26.9987 6.9978C26.794 6.9978 26.6102 7.1226 26.5343 7.31265L25.8979 8.89979L24.3112 9.5342H24.3109C24.1209 9.60988 23.9961 9.79397 23.9961 9.99867C23.9961 10.2034 24.1209 10.3875 24.3109 10.4631L25.8979 11.0997L26.5323 12.6866C26.608 12.8769 26.792 13.0017 26.9967 13.0017C27.2014 13.0017 27.3855 12.8769 27.4611 12.6866L28.0977 11.0997L29.6844 10.4653V10.4651C29.8747 10.3894 29.9995 10.2053 29.9995 10.0006C29.9995 9.79593 29.8747 9.61183 29.6844 9.53616L29.6835 9.5352ZM26.9977 10.4611L26.6683 10.3291L26.5363 9.99965L26.6683 9.67016L26.9977 9.53817L27.3272 9.67016L27.4592 9.99965L27.3272 10.3291L26.9977 10.4611Z" fill="#E47E55"/>
<path d="M0.314814 10.4644L1.90061 11.1001L2.53497 12.687H2.53522C2.61089 12.8773 2.79497 13.0021 2.99964 13.0021C3.20432 13.0021 3.3884 12.8773 3.46407 12.687L4.10044 11.1001L5.68719 10.4657L5.68744 10.4654C5.87748 10.3897 6.00226 10.2056 6.00226 10.0009C6.00226 9.79626 5.87748 9.61216 5.68744 9.53649L4.10044 8.90006L3.46508 7.31387C3.38941 7.12382 3.20533 6.99902 3.00065 6.99902C2.79598 6.99902 2.6119 7.12382 2.53623 7.31387L1.90062 8.90006L0.314821 9.53547C0.124785 9.61114 0 9.79524 0 9.99993C0 10.2046 0.124778 10.3887 0.314814 10.4644ZM3.00062 9.53847L3.33008 9.67046L3.46206 9.99995L3.33008 10.3294L3.00062 10.4614L2.67115 10.3294L2.53917 9.99995L2.67115 9.67046L3.00062 9.53847Z" fill="#E47E55"/>
<path d="M24.5333 23.686C24.6092 23.8763 24.793 24.0011 24.9977 24.0011C25.2024 24.0011 25.3865 23.8763 25.4624 23.686L26.0977 22.1L27.6845 21.4656C27.8748 21.3897 27.9996 21.2059 27.9996 21.0012C27.9996 20.7962 27.8748 20.6124 27.6845 20.5365L26.0977 19.9L25.4634 18.3131C25.3875 18.1228 25.2034 17.998 24.9987 17.998C24.794 17.998 24.6102 18.1228 24.5343 18.3131L23.8979 19.9L22.3112 20.5344H22.3109C22.1209 20.6104 21.9961 20.7942 21.9961 20.9989C21.9961 21.2038 22.1209 21.3877 22.3109 21.4636L23.8979 22.1L24.5333 23.686ZM24.5363 20.9999L24.6683 20.6705L24.9977 20.5385L25.3272 20.6705L25.4592 20.9999L25.3272 21.3294L24.9977 21.4617L24.6683 21.3297L24.5363 20.9999Z" fill="#E47E55"/>
<path d="M7.50057 20.9999C7.50082 20.7955 7.37628 20.6116 7.18649 20.5354L5.6007 19.9L4.96633 18.3131C4.89042 18.1228 4.70659 17.998 4.50191 17.998C4.29724 17.998 4.11316 18.1228 4.03724 18.3131L3.40087 19.9L1.81507 20.5354C1.62479 20.6114 1.5 20.7952 1.5 20.9999C1.5 21.2048 1.62479 21.3887 1.81507 21.4646L3.40087 22.1L4.03523 23.6869C4.11114 23.8772 4.29523 24.002 4.4999 24.002C4.70457 24.002 4.88841 23.8772 4.96432 23.6869L5.6007 22.1L7.18744 21.4656H7.18769C7.37724 21.3889 7.50132 21.2046 7.50057 20.9999ZM4.50097 21.4614L4.1715 21.3294L4.03952 20.9999L4.1715 20.6704L4.50097 20.5384L4.83043 20.6704L4.96241 20.9999L4.83043 21.3294L4.50097 21.4614Z" fill="#E47E55"/>
</svg>
