<svg xmlns="http://www.w3.org/2000/svg" xmlns:xlink="http://www.w3.org/1999/xlink" width="1024" zoomAndPan="magnify" viewBox="0 0 768 767.999994" height="1024" preserveAspectRatio="xMidYMid meet" version="1.0"><defs><clipPath id="81586f2c66"><path d="M 5 157.441406 L 171 157.441406 L 171 421 L 5 421 Z M 5 157.441406 " clip-rule="nonzero"/></clipPath><clipPath id="ce20c45fce"><path d="M 326 555 L 380 555 L 380 609.324219 L 326 609.324219 Z M 326 555 " clip-rule="nonzero"/></clipPath><clipPath id="3d79caf32c"><path d="M 596 157.441406 L 761 157.441406 L 761 421 L 596 421 Z M 596 157.441406 " clip-rule="nonzero"/></clipPath><clipPath id="82b14f125f"><path d="M 123 196 L 588 196 L 588 609.324219 L 123 609.324219 Z M 123 196 " clip-rule="nonzero"/></clipPath></defs><g clip-path="url(#81586f2c66)"><path fill="#40505f" d="M 108.660156 417.238281 L 169.9375 188.617188 C 170.609375 186.066406 169.132812 183.453125 166.585938 182.714844 L 72.789062 157.640625 C 70.242188 156.96875 67.628906 158.445312 66.957031 160.992188 L 5.746094 389.617188 C 5.007812 392.164062 6.550781 394.78125 9.03125 395.515625 L 102.828125 420.589844 C 105.375 421.261719 107.988281 419.789062 108.660156 417.238281 " fill-opacity="1" fill-rule="nonzero"/></g><path fill="#40505f" d="M 305.972656 519.550781 L 282.574219 543.015625 C 273.390625 552.535156 273.722656 567.6875 283.246094 576.875 C 292.496094 585.722656 307.179688 585.722656 316.433594 576.875 L 339.832031 553.40625 C 349.015625 543.886719 348.679688 528.734375 339.160156 519.550781 C 329.90625 510.699219 315.226562 510.632812 305.972656 519.550781 " fill-opacity="1" fill-rule="nonzero"/><g clip-path="url(#ce20c45fce)"><path fill="#40505f" d="M 374.089844 588.742188 C 381.601562 581.097656 381.464844 568.828125 373.824219 561.320312 C 366.246094 553.945312 354.246094 553.945312 346.667969 561.320312 L 331.515625 576.539062 C 324.074219 584.25 324.277344 596.519531 331.988281 603.894531 C 339.496094 611.132812 351.429688 611.132812 358.9375 603.960938 L 374.089844 588.742188 " fill-opacity="1" fill-rule="nonzero"/></g><path fill="#40505f" d="M 252.136719 475.433594 L 229.472656 498.097656 C 218.210938 509.828125 218.546875 528.398438 230.210938 539.730469 C 241.609375 550.726562 259.644531 550.726562 271.042969 539.730469 L 293.703125 517.070312 C 304.96875 505.402344 304.632812 486.765625 292.964844 475.5 C 281.570312 464.507812 263.535156 464.507812 252.136719 475.433594 " fill-opacity="1" fill-rule="nonzero"/><path fill="#40505f" d="M 212.578125 500.308594 L 235.507812 477.3125 C 244.695312 467.792969 244.359375 452.640625 234.839844 443.453125 C 225.585938 434.539062 210.902344 434.539062 201.652344 443.453125 L 178.722656 466.382812 C 169.535156 475.972656 169.871094 491.125 179.390625 500.242188 C 188.644531 509.160156 203.261719 509.160156 212.578125 500.242188 L 212.578125 500.308594 " fill-opacity="1" fill-rule="nonzero"/><g clip-path="url(#3d79caf32c)"><path fill="#40505f" d="M 596.277344 188.617188 L 657.558594 417.238281 C 658.292969 419.789062 660.84375 421.261719 663.457031 420.589844 L 757.117188 395.515625 C 759.734375 394.847656 761.277344 392.230469 760.539062 389.683594 C 760.539062 389.617188 760.539062 389.617188 760.539062 389.617188 L 699.328125 160.992188 C 698.65625 158.445312 695.972656 156.902344 693.492188 157.574219 C 693.425781 157.574219 693.425781 157.574219 693.425781 157.574219 L 599.699219 182.714844 C 597.148438 183.386719 595.609375 186 596.277344 188.550781 C 596.277344 188.550781 596.277344 188.550781 596.277344 188.617188 " fill-opacity="1" fill-rule="nonzero"/></g><path fill="#40505f" d="M 300.609375 185.398438 C 329.90625 170.78125 363.765625 168.570312 394.742188 179.09375 C 422.027344 188.414062 450.054688 195.253906 478.546875 199.410156 C 514.816406 210.070312 552.96875 212.417969 590.242188 206.183594 L 642.808594 402.222656 C 619.742188 410.535156 599.160156 424.480469 582.9375 442.785156 L 428.195312 288.042969 C 399.96875 259.886719 355.117188 257.472656 324.074219 282.410156 C 302.820312 299.441406 279.289062 313.519531 254.148438 324.179688 C 242.078125 329.277344 228.066406 323.644531 222.902344 311.507812 C 220.421875 305.675781 220.355469 299.105469 222.769531 293.207031 C 239.734375 251.570312 266.417969 214.5625 300.609375 185.398438 " fill-opacity="1" fill-rule="nonzero"/><g clip-path="url(#82b14f125f)"><path fill="#40505f" d="M 213.117188 289.25 C 205.941406 306.816406 214.390625 326.796875 231.957031 333.96875 C 240.402344 337.390625 249.855469 337.320312 258.238281 333.769531 C 284.25 322.707031 308.585938 308.15625 330.578125 290.523438 C 357.53125 268.867188 396.417969 271.015625 420.820312 295.417969 L 579.984375 454.652344 C 589.976562 464.773438 589.839844 481.132812 579.71875 491.054688 C 569.59375 500.910156 553.570312 500.910156 543.511719 491.054688 L 462.589844 410.066406 C 460.445312 408.121094 457.09375 408.324219 455.214844 410.46875 C 453.40625 412.414062 453.40625 415.429688 455.214844 417.441406 L 532.449219 494.742188 C 542.308594 505 541.972656 521.292969 531.648438 531.148438 C 521.722656 540.667969 505.96875 540.667969 496.046875 531.148438 L 428.53125 463.632812 C 426.386719 461.757812 423.101562 461.890625 421.15625 464.035156 C 419.347656 465.980469 419.347656 469.066406 421.15625 471.007812 L 480.492188 530.410156 C 490.613281 540.46875 490.613281 556.828125 480.492188 566.882812 C 470.433594 576.941406 454.140625 576.941406 444.019531 566.816406 L 391.320312 514.050781 C 389.175781 512.175781 385.890625 512.308594 383.945312 514.453125 C 382.136719 516.398438 382.136719 519.484375 383.945312 521.425781 L 427.660156 565.140625 C 437.648438 575.265625 437.515625 591.625 427.457031 601.613281 C 417.335938 611.535156 401.175781 611.535156 391.1875 601.613281 L 383.476562 593.902344 C 393.9375 581.164062 391.992188 562.324219 379.253906 551.933594 C 372.75 546.636719 364.371094 544.355469 356.054688 545.5625 C 361.085938 527.195312 350.289062 508.355469 331.917969 503.324219 C 325.417969 501.515625 318.445312 501.714844 312.074219 503.863281 C 316.230469 482.273438 302.152344 461.355469 280.5625 457.132812 C 271.109375 455.320312 261.253906 456.929688 252.941406 461.824219 C 253.746094 442.851562 238.996094 426.828125 220.019531 426.023438 C 210.433594 425.621094 201.046875 429.242188 194.277344 436.078125 L 184.285156 446.070312 C 172.21875 422.671875 149.222656 406.847656 123.074219 403.898438 L 176.507812 204.171875 C 208.890625 209.734375 242.144531 207.1875 273.253906 196.796875 C 247.507812 223.480469 227.0625 254.921875 213.117188 289.25 " fill-opacity="1" fill-rule="nonzero"/></g></svg>