<svg width="30" height="30" viewBox="0 0 30 30" fill="none" xmlns="http://www.w3.org/2000/svg">
<mask id="mask0_6001_421" style="mask-type:luminance" maskUnits="userSpaceOnUse" x="0" y="0" width="30" height="30">
<path d="M0 0H30V30H0V0Z" fill="white"/>
</mask>
<g mask="url(#mask0_6001_421)">
<path d="M14.8941 0.000538802C6.15747 -0.0645929 -1.14996 7.72428 0.185633 16.1709C0.208661 16.3549 0.334546 16.5149 0.519026 16.594L13.3588 25.7237H12.6139C12.0582 25.7237 11.5357 26.1184 11.5357 26.6599V29.065C11.5357 29.6063 12.0579 30.0001 12.6139 30.0001H17.5179C18.0736 30.0001 18.5995 29.6065 18.5995 29.065V26.6599C18.5995 26.1186 18.0739 25.7237 17.5179 25.7237H16.7421L29.2707 16.5899C29.3531 16.5524 29.4247 16.4982 29.48 16.431C29.5849 16.3256 29.6396 16.1865 29.6317 16.0444C30.8824 11.8782 28.5422 6.44257 24.7117 3.11155C24.6983 3.10062 24.6863 3.09015 24.6728 3.08015C22.1509 1.22909 18.8221 0.0293563 14.8946 0L14.8941 0.000538802ZM13.5609 1.13096C9.29371 5.65856 7.45814 9.92237 7.23629 13.4761C6.48812 12.7815 5.44729 12.3486 4.29865 12.3486C3.07559 12.3486 1.97738 12.8408 1.22181 13.6161C1.5245 7.22082 7.00061 1.74614 13.5611 1.13043L13.5609 1.13096ZM16.5778 1.17283C19.4881 1.47452 21.9559 2.47588 23.9069 3.90196C26.8429 6.46453 28.8182 10.505 28.7766 13.8569C28.0243 12.9442 26.8289 12.3492 25.4838 12.3492C24.2592 12.3492 23.159 12.843 22.4023 13.6197C22.0966 11.3397 21.3374 8.80547 20.2589 6.50449C19.269 4.3922 18.0308 2.48142 16.5778 1.17277L16.5778 1.17283ZM14.9482 1.31379C16.4982 2.37681 18.0281 4.4807 19.1731 6.92347C20.1385 8.98341 20.8447 11.2667 21.174 13.3175C20.4427 12.7177 19.4786 12.3481 18.4214 12.3481C16.7091 12.3481 15.5946 13.452 15.024 14.8044C14.3579 13.4362 13.0745 12.3481 11.3576 12.3481V12.3492C10.2042 12.3492 9.16022 12.7879 8.41408 13.4943C8.6395 10.0999 10.4687 5.88251 14.9479 1.31412L14.9482 1.31379ZM4.29884 13.4189C5.93076 13.4189 7.23976 14.6122 7.23976 16.0957C7.24641 16.2397 7.29272 16.3423 7.36156 16.4363L13.3678 24.3714L1.44965 15.898C1.57682 14.5233 2.75203 13.4186 4.29874 13.4186L4.29884 13.4189ZM11.358 13.4189C12.9894 13.4194 14.4762 14.6448 14.4762 16.0957V23.9493L8.48253 16.0284C8.53191 14.5596 9.76749 13.4191 11.357 13.4184L11.358 13.4189ZM18.4231 13.4189C20.0126 13.4189 21.2586 14.5678 21.3252 15.9976L15.6546 23.9685V16.1155C15.6551 16.1088 15.6546 16.1022 15.6546 16.0957C15.6546 14.5799 16.7902 13.4189 18.4221 13.4189L18.4231 13.4189ZM25.4842 13.4189C27.0243 13.4189 28.2752 14.4826 28.4116 15.8491L16.8288 24.291L22.4477 16.3839C22.5096 16.298 22.5431 16.198 22.5441 16.0954V16.0547C22.5682 14.5905 23.8695 13.4186 25.4864 13.4186L25.4842 13.4189ZM12.7133 26.7936H17.423V28.9303H12.7133V26.7936Z" fill="#E47E55"/>
</g>
</svg>
