<svg width="100" height="100" viewBox="0 0 100 100" fill="none" xmlns="http://www.w3.org/2000/svg">
<path d="M78.1248 97.9999H21.8748V95.7499H39.5529C40.0435 90.7031 43.8248 86.9218 48.8748 86.4312V38.5406C45.3404 37.9968 42.6248 34.9343 42.6248 31.2499C42.6248 27.5656 45.3404 24.5031 48.8748 23.9593V13.5437L21.4873 21.3687C27.7748 23.2281 32.3748 29.0562 32.3748 35.9374C32.3748 44.3124 25.5623 51.1249 17.1873 51.1249C8.81226 51.1249 1.99976 44.3124 1.99976 35.9374C1.99976 28.1906 7.83101 21.7781 15.3341 20.8624L15.3154 20.7937L80.9373 2.04369C81.4029 1.91244 81.9404 2.10931 82.206 2.52806L97.831 27.5281C98.0466 27.8749 98.056 28.3124 97.8591 28.6687C97.6591 29.0281 97.2841 29.2499 96.8748 29.2499H65.6248C65.2154 29.2499 64.8404 29.0281 64.6435 28.6687C64.4466 28.3124 64.4529 27.8749 64.6716 27.5281L78.7466 5.00931L51.1248 12.9031V23.9624C54.6591 24.5062 57.3748 27.5687 57.3748 31.2531C57.3748 34.9374 54.6591 37.9999 51.1248 38.5437V86.4343C56.1748 86.9249 59.956 90.7062 60.4466 95.7531H78.1248V97.9999ZM41.8185 95.7499H58.181C57.6623 91.6156 54.3216 88.6249 49.9998 88.6249C45.681 88.6249 42.3341 91.6156 41.8185 95.7499ZM17.1873 22.9999C10.0529 22.9999 4.24976 28.8031 4.24976 35.9374C4.24976 43.0718 10.0529 48.8749 17.1873 48.8749C24.3216 48.8749 30.1248 43.0718 30.1248 35.9374C30.1248 28.8031 24.3216 22.9999 17.1873 22.9999ZM49.9998 26.1249C47.1748 26.1249 44.8748 28.4249 44.8748 31.2499C44.8748 34.0749 47.1748 36.3749 49.9998 36.3749C52.8248 36.3749 55.1248 34.0749 55.1248 31.2499C55.1248 28.4249 52.8248 26.1249 49.9998 26.1249ZM67.6529 26.9999H94.8435L81.2498 5.24681L67.6529 26.9999Z" fill="#40505F"/>
</svg>
