<svg width="30" height="30" viewBox="0 0 30 30" fill="none" xmlns="http://www.w3.org/2000/svg">
<mask id="mask0_6001_396" style="mask-type:luminance" maskUnits="userSpaceOnUse" x="0" y="0" width="30" height="30">
<path d="M0 0H30V30H0V0Z" fill="white"/>
</mask>
<g mask="url(#mask0_6001_396)">
<path d="M28.2222 29.9776H1.77776C1.30627 29.9776 0.854078 29.7827 0.520798 29.4355C0.187244 29.0885 0 28.6179 0 28.1271V1.87274C0 1.38195 0.187244 0.911251 0.520798 0.56433C0.85412 0.217365 1.30627 0.0222168 1.77776 0.0222168H28.2222C28.6937 0.0222168 29.1459 0.217365 29.4795 0.56433C29.8128 0.911295 30 1.38195 30 1.87274V28.1271C30 28.6179 29.8128 29.0886 29.4795 29.4355C29.1459 29.7827 28.6937 29.9776 28.2222 29.9776ZM1.77776 1.23649C1.46212 1.26651 1.22091 1.54277 1.22231 1.87256V28.1269C1.22231 28.4782 1.49585 28.763 1.83337 28.763H28.2219C28.5594 28.763 28.8332 28.4782 28.8332 28.1269V1.87256C28.8332 1.52124 28.5594 1.23649 28.2219 1.23649H1.77776ZM16.7781 29.9776H0.000304382V13.7274H16.7781V29.9776ZM1.22279 28.7631H15.6115V14.9997H1.22279V28.7631Z" fill="#E47E55"/>
</g>
</svg>
