<svg width="30" height="30" viewBox="0 0 30 30" fill="none" xmlns="http://www.w3.org/2000/svg">
<mask id="mask0_6001_403" style="mask-type:luminance" maskUnits="userSpaceOnUse" x="5" y="0" width="14" height="13">
<path d="M5.16016 0H18.0724V12.5589H5.16016V0Z" fill="white"/>
</mask>
<g mask="url(#mask0_6001_403)">
<path d="M11.6178 12.5005C9.906 12.5005 8.2646 11.842 7.05429 10.67C5.84398 9.49787 5.16406 7.90805 5.16406 6.25052C5.16406 4.59299 5.84405 3.00316 7.05429 1.83106C8.2646 0.65895 9.906 0.000488281 11.6178 0.000488281C13.3293 0.000488281 14.9707 0.659009 16.1813 1.83106C17.3916 3.00316 18.0715 4.59299 18.0715 6.25052C18.0715 7.90805 17.3915 9.49787 16.1813 10.67C14.9707 11.8421 13.3293 12.5005 11.6178 12.5005ZM11.6178 1.25048C10.2485 1.25048 8.93518 1.77733 7.96701 2.71496C6.99883 3.65258 6.4548 4.92442 6.4548 6.25052C6.4548 7.57661 6.99881 8.84822 7.96701 9.78607C8.93518 10.7237 10.2485 11.2506 11.6178 11.2506C12.9871 11.2506 14.3002 10.7237 15.2686 9.78607C16.2368 8.84822 16.7808 7.57661 16.7808 6.25052C16.7808 4.92442 16.2368 3.65258 15.2686 2.71496C14.3002 1.77735 12.9871 1.25048 11.6178 1.25048Z" fill="#E47E55"/>
</g>
<mask id="mask1_6001_403" style="mask-type:luminance" maskUnits="userSpaceOnUse" x="0" y="15" width="15" height="12">
<path d="M0 15.0002H14.2594V26.2545H0V15.0002Z" fill="white"/>
</mask>
<g mask="url(#mask1_6001_403)">
<path d="M10.9715 26.2503H0.645367C0.288934 26.2503 0 25.9705 0 25.6253V20.6253C0 19.1336 0.611986 17.7029 1.70122 16.648C2.79046 15.5929 4.26781 15.0005 5.80837 15.0005H13.5526C13.9091 15.0005 14.198 15.2803 14.198 15.6255C14.198 15.9707 13.9091 16.2505 13.5526 16.2505H5.80837C4.61011 16.2505 3.46104 16.7113 2.61393 17.5319C1.76683 18.3523 1.29073 19.4651 1.29073 20.6253V25.0003H10.9712C11.3277 25.0003 11.6166 25.2801 11.6166 25.6253C11.6166 25.9705 11.3277 26.2503 10.9712 26.2503H10.9715Z" fill="#E47E55"/>
</g>
<mask id="mask2_6001_403" style="mask-type:luminance" maskUnits="userSpaceOnUse" x="14" y="13" width="16" height="17">
<path d="M14.0137 13.7498H30.0003V29.9999H14.0137V13.7498Z" fill="white"/>
</mask>
<g mask="url(#mask2_6001_403)">
<path d="M22.9762 29.9997H20.9109C20.5897 30.0013 20.2797 29.8869 20.041 29.679C19.8025 29.4708 19.6523 29.1842 19.6202 28.8748L19.4523 27.2873H19.4525C19.0562 27.1185 18.6796 26.9089 18.3294 26.6623L16.7807 27.3122C16.4886 27.4409 16.1576 27.4597 15.8523 27.365C15.5468 27.2701 15.2888 27.0687 15.1284 26.7998L14.1992 25.0748C14.0395 24.8069 13.9881 24.4912 14.0548 24.1888C14.1216 23.8862 14.3017 23.6185 14.5604 23.4373L15.8512 22.5122C15.7949 22.0975 15.7949 21.6772 15.8512 21.2622L14.5604 20.3372C14.295 20.1553 14.1103 19.8829 14.0433 19.5747C13.9763 19.2665 14.032 18.9451 14.1992 18.6748L15.2317 16.9498C15.3888 16.7042 15.6292 16.5188 15.9115 16.4253C16.1939 16.332 16.5011 16.3362 16.7807 16.4374L18.291 17.0998H18.2907C18.6409 16.8533 19.0172 16.6437 19.4136 16.4748L19.5815 14.8873C19.6137 14.578 19.7635 14.2911 20.0023 14.0832C20.241 13.8753 20.5511 13.7608 20.8722 13.7622H22.9762C23.2974 13.7608 23.6075 13.8753 23.8461 14.0832C24.0846 14.2912 24.2348 14.578 24.2669 14.8873L24.4348 16.4748H24.4346C24.8309 16.6437 25.2075 16.8533 25.5577 17.0998L27.1064 16.4374C27.3985 16.3087 27.7293 16.2899 28.0348 16.3846C28.3403 16.4795 28.5983 16.6809 28.7587 16.9498L29.7912 18.6748C29.9509 18.9427 30.0023 19.2584 29.9356 19.5608C29.8688 19.8634 29.6887 20.1311 29.4297 20.3123L28.139 21.2374H28.1392C28.1955 21.6521 28.1955 22.0724 28.1392 22.4874L29.43 23.4124L29.4297 23.4122C29.6786 23.6087 29.8429 23.8878 29.8907 24.1951C29.9385 24.5026 29.8662 24.8161 29.6879 25.0748L28.6554 26.7998C28.4949 27.0686 28.237 27.2701 27.9315 27.365C27.6262 27.4596 27.2952 27.4408 27.0032 27.3122L25.4929 26.6497H25.4932C25.143 26.8963 24.7666 27.1059 24.3703 27.2747L24.2024 28.8622C24.1745 29.1634 24.035 29.4447 23.8097 29.6538C23.5842 29.8629 23.288 29.9857 22.9763 29.9997L22.9762 29.9997ZM18.4456 25.2997C18.5972 25.3011 18.7434 25.3544 18.8587 25.4498C19.2841 25.7989 19.7688 26.0738 20.2914 26.2623C20.5261 26.343 20.6918 26.5474 20.7173 26.7873L20.9109 28.7497H22.9762L23.2342 26.7873C23.2599 26.5474 23.4256 26.343 23.6603 26.2623C24.1827 26.0739 24.6676 25.7989 25.093 25.4498C25.2844 25.2951 25.5508 25.2611 25.777 25.3623L27.6358 26.1748L28.6683 24.4498L27.0161 23.2999C26.8165 23.1601 26.7164 22.9223 26.7579 22.6874C26.8734 22.1515 26.8734 21.5981 26.7579 21.0622C26.7164 20.8271 26.8165 20.5896 27.0161 20.4498L28.6683 19.2998L27.6358 17.5748L25.777 18.3874C25.5508 18.4885 25.2844 18.4546 25.093 18.2999C24.6477 17.9482 24.1404 17.6772 23.5956 17.4999C23.361 17.419 23.1953 17.2148 23.1698 16.9747L22.9762 14.9999H20.9109L20.6527 16.9624C20.6272 17.2022 20.4615 17.4067 20.2268 17.4874C19.7042 17.6758 19.2195 17.9507 18.7941 18.2999C18.6027 18.4546 18.3363 18.4885 18.1101 18.3874L16.2513 17.5748L15.2188 19.2998L16.871 20.4498C17.0706 20.5896 17.1707 20.8271 17.1292 21.0622C17.0134 21.5981 17.0134 22.1515 17.1292 22.6874C17.1707 22.9224 17.0706 23.1601 16.871 23.2999L15.2188 24.4498L16.2513 26.1748L18.1101 25.3623C18.2141 25.3125 18.3301 25.2911 18.4456 25.2997Z" fill="#E47E55"/>
</g>
</svg>
