<svg width="80" height="80" viewBox="0 0 80 80" fill="none" xmlns="http://www.w3.org/2000/svg">
<path d="M26.1587 32.3967L28.4712 34.947L33.4519 29.8465M39.5 30.3929H53.1971M39.5 34.947H49.2837M39.5 40.7762H53.1971M39.5 45.3302H49.2837M39.5 51.1594H53.1971M39.5 55.5313H49.2837M26.1587 43.3265L28.4712 45.8767L33.4519 40.7762M26.1587 53.5276L28.4712 56.0778L33.4519 50.9773M30.6058 23.8351H48.75C48.549 19.4921 47.0417 18.3563 42.3462 18.1881C41.9904 15.4556 37.7212 15.0913 36.8317 18.1881C32.0304 18.0746 30.9212 19.5572 30.6058 23.8351ZM30.6058 23.8351C30.7837 21.467 30.9597 21.2399 31.3173 20.0097H24C22.3431 20.0097 21 21.3528 21 23.0097V60C21 61.6569 22.3431 63 24 63H55C56.6569 63 58 61.6569 58 60V23.0097C58 21.3528 56.6569 20.0097 55 20.0097H47.8606C48.5632 21.6106 48.7352 22.4419 48.7055 23.8351L30.6058 23.8351Z" stroke="#687f9d" stroke-width="2"/>
<ellipse cx="39.5" cy="19" rx="1.5" ry="1" fill="#687f9d"/>
</svg>
