<svg width="30" height="30" viewBox="0 0 30 30" fill="none" xmlns="http://www.w3.org/2000/svg">
<path d="M25.6813 14.9132C25.5437 14.9153 25.412 14.9709 25.3139 15.0681C21.9152 18.479 18.5126 21.8857 15.1116 25.2945C15.0119 25.3955 14.9562 25.5321 14.957 25.6743V29.4622C14.9557 29.7586 15.1945 29.9994 15.4901 29.9999H19.267C19.4091 29.9999 19.5456 29.9431 19.6458 29.842C23.0458 26.4322 26.4451 23.0231 29.8454 19.615C30.0525 19.4061 30.0525 19.0685 29.8454 18.8595L26.0664 15.0677C25.9638 14.9659 25.8247 14.91 25.6805 14.9127L25.6813 14.9132ZM25.6874 16.2043L28.7111 19.2377L27.2012 20.7519L24.1766 17.7195L25.6874 16.2043ZM23.4235 18.4791L26.4439 21.5072L19.0468 28.929H16.0264V25.8966L23.4235 18.4791Z" fill="#E47E55"/>
<path d="M13.3523 8.20341e-05C5.98298 8.20341e-05 0 6.00338 0 13.3929C0 20.7828 5.98284 26.7857 13.3523 26.7857C13.6473 26.7857 13.8864 26.546 13.8864 26.2501C13.8864 25.9542 13.6473 25.7144 13.3523 25.7144C11.8714 25.7144 10.4111 24.4717 9.29991 22.2427C8.73585 21.111 8.2773 19.7414 7.96027 18.2143H18.7489C18.7009 18.445 18.6561 18.6492 18.6018 18.8725C18.5255 19.1582 18.6924 19.452 18.9774 19.5285C19.2623 19.6051 19.5552 19.4355 19.6316 19.1497C19.7061 18.8427 19.7742 18.5332 19.837 18.2143H20.4443C20.7393 18.2143 20.9784 17.9745 20.9784 17.6786C20.9784 17.3827 20.7393 17.143 20.4443 17.143L20.0249 17.1427C20.2015 15.9515 20.2982 14.6954 20.2982 13.3926C20.2982 12.0895 20.2017 10.8335 20.0249 9.64257H25.0599C25.4355 10.825 25.6398 11.9975 25.6398 13.3057C25.6398 13.6016 25.8789 13.8414 26.174 13.8414C26.469 13.8414 26.7081 13.6016 26.7081 13.3057C26.6612 5.956 20.6921 0 13.3517 0L13.3523 8.20341e-05ZM13.3523 1.07164C14.8332 1.07164 16.2985 2.31443 17.4097 4.54344C17.9737 5.67509 18.4323 7.04466 18.7493 8.57183L7.96 8.57157C8.27702 7.04459 8.73561 5.67482 9.29964 4.54317C10.4108 2.31416 11.8708 1.07138 13.352 1.07138L13.3523 1.07164ZM10.1158 1.51106C9.44441 2.18681 8.84907 3.05661 8.34652 4.06516C7.70585 5.3502 7.2059 6.8814 6.87218 8.57156H2.04373C3.50001 5.1338 6.47006 2.50607 10.116 1.51106H10.1158ZM16.5927 1.51213C20.2374 2.50822 23.2083 5.13513 24.665 8.57126H19.8376C19.5041 6.8811 19.004 5.34991 18.3633 4.06486C17.8607 3.05686 17.2646 2.18728 16.5929 1.51179L16.5927 1.51213ZM1.64852 9.6431H6.68456C6.50802 10.834 6.41021 12.0901 6.41021 13.3932C6.41021 14.696 6.50802 15.9521 6.68456 17.1432L1.64825 17.1427C1.27265 15.9603 1.06935 14.7007 1.06935 13.3926C1.06935 12.0845 1.27292 10.825 1.64825 9.64257L1.64852 9.6431ZM7.76444 9.6431H18.9453C19.1295 10.8252 19.2302 12.0853 19.2302 13.3932C19.2302 14.7008 19.1298 15.9608 18.9453 17.1432L7.76376 17.1427C7.57954 15.9605 7.47802 14.7005 7.47802 13.3926C7.47802 12.085 7.57954 10.825 7.76376 9.64257L7.76444 9.6431ZM2.044 18.2144H6.87245C7.20591 19.9064 7.70581 21.4395 8.34679 22.725C8.84856 23.732 9.44309 24.5994 10.1132 25.2738C6.46877 24.278 3.50001 21.6511 2.04427 18.2146L2.044 18.2144Z" fill="#E47E55"/>
</svg>
