<svg width="100" height="100" viewBox="0 0 100 100" fill="none" xmlns="http://www.w3.org/2000/svg">
<path d="M62.5 43.75H87.5C89.157 43.7481 90.7456 43.089 91.9173 41.9173C93.089 40.7456 93.7481 39.157 93.75 37.5V12.5C93.7481 10.843 93.089 9.25437 91.9173 8.08268C90.7456 6.91099 89.157 6.2519 87.5 6.25H62.5C60.843 6.2519 59.2544 6.91099 58.0827 8.08268C56.911 9.25437 56.2519 10.843 56.25 12.5H28.125C26.468 12.5019 24.8794 13.161 23.7077 14.3327C22.536 15.5044 21.8769 17.093 21.875 18.75V31.25H12.5C10.843 31.2519 9.25437 31.911 8.08268 33.0827C6.91099 34.2544 6.2519 35.843 6.25 37.5V62.5C6.2519 64.157 6.91099 65.7456 8.08268 66.9173C9.25437 68.089 10.843 68.7481 12.5 68.75H18.75V81.25C18.7519 82.907 19.411 84.4956 20.5827 85.6673C21.7544 86.839 23.343 87.4981 25 87.5H56.25C56.2519 89.157 56.911 90.7456 58.0827 91.9173C59.2544 93.089 60.843 93.7481 62.5 93.75H87.5C89.157 93.7481 90.7456 93.089 91.9173 91.9173C93.089 90.7456 93.7481 89.157 93.75 87.5V62.5C93.7481 60.843 93.089 59.2544 91.9173 58.0827C90.7456 56.911 89.157 56.2519 87.5 56.25H62.5C60.843 56.2519 59.2544 56.911 58.0827 58.0827C56.911 59.2544 56.2519 60.843 56.25 62.5V81.25H25V68.75H37.5C39.157 68.7481 40.7456 68.089 41.9173 66.9173C43.089 65.7456 43.7481 64.157 43.75 62.5V37.5C43.7481 35.843 43.089 34.2544 41.9173 33.0827C40.7456 31.911 39.157 31.2519 37.5 31.25H28.125V18.75H56.25V37.5C56.2519 39.157 56.911 40.7456 58.0827 41.9173C59.2544 43.089 60.843 43.7481 62.5 43.75ZM62.5 87.5V75H87.5V87.5H62.5ZM87.5 62.5V68.75H62.5V62.5H87.5ZM12.5 62.5V50H37.5V62.5H12.5ZM37.5016 43.75H12.5V37.5H37.5L37.5016 43.75ZM62.5 37.5V25H87.5V37.5H62.5ZM87.5 12.5V18.75H62.5V12.5H87.5Z" fill="#40505F"/>
</svg>
