<svg width="100" height="75" viewBox="0 0 100 75" fill="none" xmlns="http://www.w3.org/2000/svg">
<path d="M96.875 62.5H12.5V3.125C12.5 1.39844 11.1016 0 9.375 0H3.125C1.39844 0 0 1.39844 0 3.125V68.75C0 72.2012 2.79883 75 6.25 75H96.875C98.6016 75 100 73.6016 100 71.875V65.625C100 63.8984 98.6016 62.5 96.875 62.5ZM90.625 6.25H67.5664C63.3906 6.25 61.2988 11.2988 64.252 14.252L70.5801 20.5801L56.25 34.9121L41.9199 20.582C39.4785 18.1406 35.5215 18.1406 33.082 20.582L19.666 33.998C18.4453 35.2188 18.4453 37.1973 19.666 38.418L24.084 42.8359C25.3047 44.0566 27.2832 44.0566 28.5039 42.8359L37.5 33.8379L51.8301 48.168C54.2715 50.6094 58.2285 50.6094 60.668 48.168L79.418 29.418L85.7461 35.7461C88.6992 38.6992 93.748 36.6074 93.748 32.4316V9.375C93.75 7.64844 92.3516 6.25 90.625 6.25Z" fill="#40505F"/>
</svg>
