<svg width="74" height="100" viewBox="0 0 74 100" fill="none" xmlns="http://www.w3.org/2000/svg">
<path d="M73.3339 36.667C73.3339 16.3328 56.8327 0 36.667 0C16.5013 0 0 16.4967 0 36.667C0 50.6692 8.49873 63.0007 20.0018 69.1688L16.6651 100L36.667 86.667L56.6688 100L53.3367 69.1642C64.9991 63.0007 73.3339 50.6646 73.3339 36.667ZM36.667 69.9973C32.2889 69.9991 27.9533 69.1381 23.9082 67.4635C19.863 65.7889 16.1875 63.3335 13.0917 60.2377C9.99588 57.1419 7.54053 53.4664 5.86593 49.4212C4.19133 45.3761 3.33033 41.0405 3.33212 36.6624C3.33212 18.1628 18.3312 3.32757 36.667 3.32757C55.0027 3.32757 70.0018 18.3267 70.0018 36.6624C70.0175 41.0444 69.1659 45.3862 67.4962 49.4376C65.8265 53.489 63.3717 57.1701 60.2731 60.2686C57.1746 63.3671 53.4936 65.822 49.4422 67.4917C45.3907 69.1614 41.049 70.0129 36.667 69.9973ZM51.6661 22.9971L56.6642 27.9953L34.1633 50.4962L21.6679 37.9962L26.6661 32.998L34.1679 40.4998L51.6661 22.9971Z" fill="#40505F"/>
</svg>
