<svg width="100" height="100" viewBox="0 0 100 100" fill="none" xmlns="http://www.w3.org/2000/svg">
<path d="M40.625 53.125H21.875C20.2174 53.125 18.6277 53.7835 17.4556 54.9556C16.2835 56.1277 15.625 57.7174 15.625 59.375V78.125C15.625 79.7826 16.2835 81.3723 17.4556 82.5444C18.6277 83.7165 20.2174 84.375 21.875 84.375H40.625C42.2826 84.375 43.8723 83.7165 45.0444 82.5444C46.2165 81.3723 46.875 79.7826 46.875 78.125V59.375C46.875 57.7174 46.2165 56.1277 45.0444 54.9556C43.8723 53.7835 42.2826 53.125 40.625 53.125ZM21.875 78.125V59.375H40.625V78.125H21.875Z" fill="#40505F"/>
<mask id="path-2-inside-1_10_32" fill="white">
<path d="M59.375 65.625V71.875H78.125C79.7826 71.875 81.3723 71.2165 82.5444 70.0444C83.7165 68.8723 84.375 67.2826 84.375 65.625V21.875C84.375 20.2174 83.7165 18.6277 82.5444 17.4556C81.3723 16.2835 79.7826 15.625 78.125 15.625H34.375C32.7174 15.625 31.1277 16.2835 29.9556 17.4556C28.7835 18.6277 28.125 20.2174 28.125 21.875V40.625H34.375V21.875H78.125V65.625"/>
</mask>
<path d="M59.375 65.625V71.875H78.125C79.7826 71.875 81.3723 71.2165 82.5444 70.0444C83.7165 68.8723 84.375 67.2826 84.375 65.625V21.875C84.375 20.2174 83.7165 18.6277 82.5444 17.4556C81.3723 16.2835 79.7826 15.625 78.125 15.625H34.375C32.7174 15.625 31.1277 16.2835 29.9556 17.4556C28.7835 18.6277 28.125 20.2174 28.125 21.875V40.625H34.375V21.875H78.125V65.625" fill="#40505F"/>
<path d="M59.375 71.875H58.375V72.875H59.375V71.875ZM78.125 15.625V14.625V15.625ZM34.375 15.625V14.625V15.625ZM28.125 40.625H27.125V41.625H28.125V40.625ZM34.375 40.625V41.625H35.375V40.625H34.375ZM34.375 21.875V20.875H33.375V21.875H34.375ZM78.125 21.875H79.125V20.875H78.125V21.875ZM58.375 65.625V71.875H60.375V65.625H58.375ZM59.375 72.875H78.125V70.875H59.375V72.875ZM78.125 72.875C80.0478 72.875 81.8919 72.1112 83.2515 70.7515L81.8373 69.3373C80.8527 70.3219 79.5174 70.875 78.125 70.875V72.875ZM83.2515 70.7515C84.6112 69.3919 85.375 67.5478 85.375 65.625H83.375C83.375 67.0174 82.8219 68.3527 81.8373 69.3373L83.2515 70.7515ZM85.375 65.625V21.875H83.375V65.625H85.375ZM85.375 21.875C85.375 19.9522 84.6112 18.1081 83.2515 16.7485L81.8373 18.1627C82.8219 19.1473 83.375 20.4826 83.375 21.875H85.375ZM83.2515 16.7485C81.8919 15.3888 80.0478 14.625 78.125 14.625V16.625C79.5174 16.625 80.8527 17.1781 81.8373 18.1627L83.2515 16.7485ZM78.125 14.625H34.375V16.625H78.125V14.625ZM34.375 14.625C32.4522 14.625 30.6081 15.3888 29.2485 16.7485L30.6627 18.1627C31.6473 17.1781 32.9826 16.625 34.375 16.625V14.625ZM29.2485 16.7485C27.8888 18.1081 27.125 19.9522 27.125 21.875H29.125C29.125 20.4826 29.6781 19.1473 30.6627 18.1627L29.2485 16.7485ZM27.125 21.875V40.625H29.125V21.875H27.125ZM28.125 41.625H34.375V39.625H28.125V41.625ZM35.375 40.625V21.875H33.375V40.625H35.375ZM34.375 22.875H78.125V20.875H34.375V22.875ZM77.125 21.875V65.625H79.125V21.875H77.125Z" fill="#40505F" mask="url(#path-2-inside-1_10_32)"/>
</svg>
