<svg width="100" height="104" viewBox="0 0 100 104" fill="none" xmlns="http://www.w3.org/2000/svg">
<path d="M24.1379 31.0362C24.1379 26.2741 20.2792 22.4155 15.5172 22.4155C10.7551 22.4155 6.89648 26.2741 6.89648 31.0362C6.89648 35.7983 10.7551 39.6569 15.5172 39.6569C20.2792 39.6569 24.1379 35.7983 24.1379 31.0362Z" fill="#40505F"/>
<path d="M24.1379 39.6567H6.89655C3.08793 39.6567 0 42.7447 0 46.5533V58.6223H6.89655V81.036H24.1379V58.6223H31.0345V46.5533C31.0345 42.7447 27.9466 39.6567 24.1379 39.6567Z" fill="#40505F"/>
<path d="M93.1037 31.0362C93.1037 26.2741 89.2451 22.4155 84.483 22.4155C79.7209 22.4155 75.8623 26.2741 75.8623 31.0362C75.8623 35.7983 79.7209 39.6569 84.483 39.6569C89.2451 39.6569 93.1037 35.7983 93.1037 31.0362Z" fill="#40505F"/>
<path d="M93.1033 39.6567H75.8619C72.0533 39.6567 68.9653 42.7447 68.9653 46.5533V58.6223H75.8619V81.036H93.1033V58.6223H99.9998V46.5533C99.9998 42.7447 96.9119 39.6567 93.1033 39.6567Z" fill="#40505F"/>
<path d="M13.793 8.62069V17.2414H17.2412V8.62069C17.2412 5.76897 19.5619 3.44828 22.4137 3.44828H34.4826V0H22.4137C17.6602 0 13.793 3.86724 13.793 8.62069Z" fill="#40505F"/>
<path d="M90.1605 7.40172L86.207 11.3552V8.62069C86.207 3.86724 82.3398 0 77.5863 0H37.9312V3.44828H77.5863C80.438 3.44828 82.7587 5.76896 82.7587 8.62069V11.3552L78.8053 7.40172L76.3674 9.83965L84.4829 17.9552L92.5984 9.83965L90.1605 7.40172Z" fill="#40505F"/>
<path d="M17.2415 94.8274V92.0929L21.195 96.0464L23.6329 93.6084L15.5174 85.4929L7.40186 93.6084L9.83979 96.0464L13.7932 92.0929V94.8274C13.7932 99.5809 17.6605 103.448 22.4139 103.448H55.1725V99.9998H22.4139C19.5622 99.9998 17.2415 97.6791 17.2415 94.8274Z" fill="#40505F"/>
<path d="M58.6206 100H62.0689V103.448H58.6206V100Z" fill="#40505F"/>
<path d="M82.7585 86.2068V94.8275C82.7585 97.6792 80.4378 99.9999 77.5861 99.9999H65.5171V103.448H77.5861C82.3395 103.448 86.2067 99.5809 86.2067 94.8275V86.2068H82.7585Z" fill="#40505F"/>
</svg>
