<svg width="100" height="94" viewBox="0 0 100 94" fill="none" xmlns="http://www.w3.org/2000/svg">
<path fill-rule="evenodd" clip-rule="evenodd" d="M53.366 0C29.1093 0 10.5035 20.0641 8.32233 43.906H0L11.8926 56.1757L24.8727 43.906H16.4561C18.5367 23.6093 33.723 6.45546 53.7746 6.45546C75.2216 6.45546 92.6771 24.6087 92.6771 46.9168C92.6771 69.225 75.2216 87.3845 53.7746 87.3845C43.1202 87.3845 33.459 82.9028 26.4316 75.6616L21.271 80.8536C29.6499 88.8742 40.9391 93.8337 53.366 93.8337C79.0873 93.8337 100 72.7827 100 46.9168C100 21.051 79.0873 0 53.366 0Z" fill="#40505F"/>
<path fill-rule="evenodd" clip-rule="evenodd" d="M49.9146 18.5028V49.9968H74.8043V43.711H56.018V18.5028H49.9146Z" fill="#40505F"/>
</svg>
